<mxfile host="app.diagrams.net" modified="2022-01-16T15:05:27.444Z" agent="5.0 (Windows NT 10.0; Win64; x64) AppleWebKit/537.36 (KHTML, like Gecko) Chrome/97.0.4692.71 Safari/537.36" etag="fAH9fUt2dByc1-4k3ZNd" version="16.2.7" type="github">
  <diagram id="pAJJdIPkgRgYyLBMtVKs" name="Page-1">
    <mxGraphModel dx="1019" dy="519" grid="1" gridSize="10" guides="1" tooltips="1" connect="1" arrows="1" fold="1" page="1" pageScale="1" pageWidth="3300" pageHeight="4681" math="0" shadow="0">
      <root>
        <mxCell id="0" />
        <mxCell id="1" parent="0" />
        <mxCell id="SBOwB0kPgR7Zq0svO9q3-4" value="" style="aspect=fixed;html=1;points=[];align=center;image;fontSize=12;image=img/lib/azure2/compute/Virtual_Machine.svg;" vertex="1" parent="1">
          <mxGeometry x="151" y="100" width="69" height="64" as="geometry" />
        </mxCell>
        <mxCell id="SBOwB0kPgR7Zq0svO9q3-6" value="" style="aspect=fixed;html=1;points=[];align=center;image;fontSize=12;image=img/lib/azure2/security/Application_Security_Groups.svg;" vertex="1" parent="1">
          <mxGeometry x="480" y="258" width="90.59" height="110" as="geometry" />
        </mxCell>
        <mxCell id="SBOwB0kPgR7Zq0svO9q3-8" value="" style="aspect=fixed;html=1;points=[];align=center;image;fontSize=12;image=img/lib/azure2/internet_of_things/Time_Series_Insights_Access_Policies.svg;" vertex="1" parent="1">
          <mxGeometry x="210" y="235" width="83.38" height="135" as="geometry" />
        </mxCell>
        <mxCell id="SBOwB0kPgR7Zq0svO9q3-9" value="&lt;div class=&quot;ext-browse-zerosubs-panel-title&quot; style=&quot;font-size: 16px ; font-weight: 600 ; line-height: 22px ; margin-top: 16px ; color: rgb(50 , 49 , 48) ; font-family: &amp;#34;az_ea_font&amp;#34; , &amp;#34;segoe ui&amp;#34; , &amp;#34;az_font&amp;#34; , , , &amp;#34;blinkmacsystemfont&amp;#34; , &amp;#34;roboto&amp;#34; , &amp;#34;oxygen&amp;#34; , &amp;#34;ubuntu&amp;#34; , &amp;#34;cantarell&amp;#34; , &amp;#34;open sans&amp;#34; , &amp;#34;helvetica neue&amp;#34; , sans-serif ; text-align: left ; background-color: rgb(255 , 255 , 255) ; outline: none&quot;&gt;Start with an Azure free trial&lt;/div&gt;&lt;div class=&quot;ext-browse-zerosubs-panel-description&quot; style=&quot;font-size: 13px ; margin-top: 4px ; line-height: 18px ; color: rgb(50 , 49 , 48) ; font-family: &amp;#34;az_ea_font&amp;#34; , &amp;#34;segoe ui&amp;#34; , &amp;#34;az_font&amp;#34; , , , &amp;#34;blinkmacsystemfont&amp;#34; , &amp;#34;roboto&amp;#34; , &amp;#34;oxygen&amp;#34; , &amp;#34;ubuntu&amp;#34; , &amp;#34;cantarell&amp;#34; , &amp;#34;open sans&amp;#34; , &amp;#34;helvetica neue&amp;#34; , sans-serif ; text-align: left ; background-color: rgb(255 , 255 , 255) ; outline: none&quot;&gt;&lt;span id=&quot;_weave_e_151&quot; style=&quot;font-weight: inherit ; outline: none&quot;&gt;Get $200 free credit toward Azure products and services, plus 12 months of popular&amp;nbsp;&lt;a tabindex=&quot;0&quot; href=&quot;https://portal.azure.com/#blade/Microsoft_Azure_Billing/FreeServicesBlade&quot; class=&quot;fxs-fxclick&quot; style=&quot;font-weight: inherit ; color: rgb(0 , 120 , 212) ; cursor: pointer ; outline: none&quot;&gt;free services&lt;/a&gt;.&lt;/span&gt;&lt;/div&gt;" style="text;html=1;strokeColor=none;fillColor=none;align=center;verticalAlign=middle;whiteSpace=wrap;rounded=0;" vertex="1" parent="1">
          <mxGeometry x="160" y="270" width="150" height="340" as="geometry" />
        </mxCell>
        <mxCell id="SBOwB0kPgR7Zq0svO9q3-10" value="&lt;div class=&quot;ext-browse-zerosubs-panel-title&quot; style=&quot;font-size: 16px ; font-weight: 600 ; line-height: 22px ; margin-top: 16px ; color: rgb(50 , 49 , 48) ; font-family: &amp;#34;az_ea_font&amp;#34; , &amp;#34;segoe ui&amp;#34; , &amp;#34;az_font&amp;#34; , , , &amp;#34;blinkmacsystemfont&amp;#34; , &amp;#34;roboto&amp;#34; , &amp;#34;oxygen&amp;#34; , &amp;#34;ubuntu&amp;#34; , &amp;#34;cantarell&amp;#34; , &amp;#34;open sans&amp;#34; , &amp;#34;helvetica neue&amp;#34; , sans-serif ; text-align: left ; background-color: rgb(255 , 255 , 255) ; outline: none&quot;&gt;&lt;div class=&quot;ext-browse-zerosubs-panel-title&quot; style=&quot;line-height: 22px ; margin-top: 16px ; font-family: &amp;#34;az_ea_font&amp;#34; , &amp;#34;segoe ui&amp;#34; , &amp;#34;az_font&amp;#34; , , , &amp;#34;blinkmacsystemfont&amp;#34; , &amp;#34;roboto&amp;#34; , &amp;#34;oxygen&amp;#34; , &amp;#34;ubuntu&amp;#34; , &amp;#34;cantarell&amp;#34; , &amp;#34;open sans&amp;#34; , &amp;#34;helvetica neue&amp;#34; , sans-serif ; outline: none&quot;&gt;Manage Azure Active Directory&lt;/div&gt;&lt;div class=&quot;ext-browse-zerosubs-panel-description&quot; style=&quot;font-size: 13px ; font-weight: 400 ; margin-top: 4px ; line-height: 18px ; font-family: &amp;#34;az_ea_font&amp;#34; , &amp;#34;segoe ui&amp;#34; , &amp;#34;az_font&amp;#34; , , , &amp;#34;blinkmacsystemfont&amp;#34; , &amp;#34;roboto&amp;#34; , &amp;#34;oxygen&amp;#34; , &amp;#34;ubuntu&amp;#34; , &amp;#34;cantarell&amp;#34; , &amp;#34;open sans&amp;#34; , &amp;#34;helvetica neue&amp;#34; , sans-serif ; outline: none&quot;&gt;&lt;span style=&quot;font-weight: inherit ; outline: none&quot;&gt;Manage access, set smart policies, and enhance security with Azure Active Directory.&lt;/span&gt;&lt;/div&gt;&lt;/div&gt;" style="text;html=1;strokeColor=none;fillColor=none;align=center;verticalAlign=middle;whiteSpace=wrap;rounded=0;" vertex="1" parent="1">
          <mxGeometry x="460" y="270" width="150" height="340" as="geometry" />
        </mxCell>
        <UserObject label="start" link="https://signup.azure.com/signup?offer=ms-azr-0044p&amp;appId=AzPortal_Fx_ZeroSubs_FreeTrialBtn" id="SBOwB0kPgR7Zq0svO9q3-12">
          <mxCell style="labelPosition=center;verticalLabelPosition=middle;align=center;html=1;shape=mxgraph.basic.shaded_button;dx=10;fillColor=#E6E6E6;strokeColor=none;" vertex="1" parent="1">
            <mxGeometry x="160" y="530" width="80" height="50" as="geometry" />
          </mxCell>
        </UserObject>
        <UserObject label="learn more" link="https://azure.microsoft.com/en-us/free/" id="SBOwB0kPgR7Zq0svO9q3-13">
          <mxCell style="labelPosition=center;verticalLabelPosition=middle;align=center;html=1;shape=mxgraph.basic.shaded_button;dx=10;fillColor=#E6E6E6;strokeColor=none;" vertex="1" parent="1">
            <mxGeometry x="250" y="530" width="110" height="50" as="geometry" />
          </mxCell>
        </UserObject>
        <UserObject label="learn more" link="https://azure.microsoft.com/en-us/services/active-directory/" id="SBOwB0kPgR7Zq0svO9q3-14">
          <mxCell style="labelPosition=center;verticalLabelPosition=middle;align=center;html=1;shape=mxgraph.basic.shaded_button;dx=10;fillColor=#E6E6E6;strokeColor=none;" vertex="1" parent="1">
            <mxGeometry x="520" y="530" width="110" height="50" as="geometry" />
          </mxCell>
        </UserObject>
        <UserObject label="view" link="https://portal.azure.com/#blade/Microsoft_AAD_IAM/ActiveDirectoryMenuBlade/Overview" id="SBOwB0kPgR7Zq0svO9q3-15">
          <mxCell style="labelPosition=center;verticalLabelPosition=middle;align=center;html=1;shape=mxgraph.basic.shaded_button;dx=10;fillColor=#E6E6E6;strokeColor=none;" vertex="1" parent="1">
            <mxGeometry x="430" y="530" width="80" height="50" as="geometry" />
          </mxCell>
        </UserObject>
        <mxCell id="SBOwB0kPgR7Zq0svO9q3-16" value="" style="aspect=fixed;html=1;points=[];align=center;image;fontSize=12;image=img/lib/azure2/app_services/CDN_Profiles.svg;" vertex="1" parent="1">
          <mxGeometry x="660" y="270" width="183.6" height="108" as="geometry" />
        </mxCell>
        <mxCell id="SBOwB0kPgR7Zq0svO9q3-17" value="&lt;div class=&quot;ext-browse-zerosubs-panel-title&quot; style=&quot;font-size: 16px ; font-weight: 600 ; line-height: 22px ; margin-top: 16px ; color: rgb(50 , 49 , 48) ; font-family: &amp;#34;az_ea_font&amp;#34; , &amp;#34;segoe ui&amp;#34; , &amp;#34;az_font&amp;#34; , , , &amp;#34;blinkmacsystemfont&amp;#34; , &amp;#34;roboto&amp;#34; , &amp;#34;oxygen&amp;#34; , &amp;#34;ubuntu&amp;#34; , &amp;#34;cantarell&amp;#34; , &amp;#34;open sans&amp;#34; , &amp;#34;helvetica neue&amp;#34; , sans-serif ; text-align: left ; background-color: rgb(255 , 255 , 255) ; outline: none&quot;&gt;&lt;div class=&quot;ext-browse-zerosubs-panel-title&quot; style=&quot;line-height: 22px ; margin-top: 16px ; font-family: &amp;#34;az_ea_font&amp;#34; , &amp;#34;segoe ui&amp;#34; , &amp;#34;az_font&amp;#34; , , , &amp;#34;blinkmacsystemfont&amp;#34; , &amp;#34;roboto&amp;#34; , &amp;#34;oxygen&amp;#34; , &amp;#34;ubuntu&amp;#34; , &amp;#34;cantarell&amp;#34; , &amp;#34;open sans&amp;#34; , &amp;#34;helvetica neue&amp;#34; , sans-serif ; outline: none&quot;&gt;&lt;div class=&quot;ext-browse-zerosubs-panel-title&quot; style=&quot;line-height: 22px ; margin-top: 16px ; font-family: &amp;#34;az_ea_font&amp;#34; , &amp;#34;segoe ui&amp;#34; , &amp;#34;az_font&amp;#34; , , , &amp;#34;blinkmacsystemfont&amp;#34; , &amp;#34;roboto&amp;#34; , &amp;#34;oxygen&amp;#34; , &amp;#34;ubuntu&amp;#34; , &amp;#34;cantarell&amp;#34; , &amp;#34;open sans&amp;#34; , &amp;#34;helvetica neue&amp;#34; , sans-serif ; outline: none&quot;&gt;Access student benefits&lt;/div&gt;&lt;div class=&quot;ext-browse-zerosubs-panel-description&quot; style=&quot;font-size: 13px ; font-weight: 400 ; margin-top: 4px ; line-height: 18px ; font-family: &amp;#34;az_ea_font&amp;#34; , &amp;#34;segoe ui&amp;#34; , &amp;#34;az_font&amp;#34; , , , &amp;#34;blinkmacsystemfont&amp;#34; , &amp;#34;roboto&amp;#34; , &amp;#34;oxygen&amp;#34; , &amp;#34;ubuntu&amp;#34; , &amp;#34;cantarell&amp;#34; , &amp;#34;open sans&amp;#34; , &amp;#34;helvetica neue&amp;#34; , sans-serif ; outline: none&quot;&gt;&lt;span style=&quot;font-weight: inherit ; outline: none&quot;&gt;Get free software, Azure credit, or access Azure Dev Tools for Teaching after you verify your academic status.&lt;/span&gt;&lt;/div&gt;&lt;/div&gt;&lt;/div&gt;" style="text;html=1;strokeColor=none;fillColor=none;align=center;verticalAlign=middle;whiteSpace=wrap;rounded=0;" vertex="1" parent="1">
          <mxGeometry x="676.8" y="280" width="150" height="340" as="geometry" />
        </mxCell>
        <UserObject label="&lt;span style=&quot;font-size: 12px&quot;&gt;expore&lt;/span&gt;" link="https://portal.azure.com/#blade/Microsoft_Azure_Education/EducationMenuBlade/overview" id="SBOwB0kPgR7Zq0svO9q3-18">
          <mxCell style="labelPosition=center;verticalLabelPosition=middle;align=center;html=1;shape=mxgraph.basic.shaded_button;dx=10;fillColor=#E6E6E6;strokeColor=none;" vertex="1" parent="1">
            <mxGeometry x="670" y="530" width="80" height="50" as="geometry" />
          </mxCell>
        </UserObject>
        <UserObject label="learn more" link="%3CmxGraphModel%3E%3Croot%3E%3CmxCell%20id%3D%220%22%2F%3E%3CmxCell%20id%3D%221%22%20parent%3D%220%22%2F%3E%3CUserObject%20label%3D%22learn%20more%22%20link%3D%22https%3A%2F%2Fazure.microsoft.com%2Fen-us%2Fservices%2Factive-directory%2F%22%20id%3D%222%22%3E%3CmxCell%20style%3D%22labelPosition%3Dcenter%3BverticalLabelPosition%3Dmiddle%3Balign%3Dcenter%3Bhtml%3D1%3Bshape%3Dmxgraph.basic.shaded_button%3Bdx%3D10%3BfillColor%3D%23E6E6E6%3BstrokeColor%3Dnone%3B%22%20vertex%3D%221%22%20parent%3D%221%22%3E%3CmxGeometry%20x%3D%22520%22%20y%3D%22530%22%20width%3D%22110%22%20height%3D%2250%22%20as%3D%22geometry%22%2F%3E%3C%2FmxCell%3E%3C%2FUserObject%3E%3C%2Froot%3E%3C%2FmxGraphModel%3E" id="SBOwB0kPgR7Zq0svO9q3-20">
          <mxCell style="labelPosition=center;verticalLabelPosition=middle;align=center;html=1;shape=mxgraph.basic.shaded_button;dx=10;fillColor=#E6E6E6;strokeColor=none;" vertex="1" parent="1">
            <mxGeometry x="770" y="530" width="110" height="50" as="geometry" />
          </mxCell>
        </UserObject>
        <mxCell id="SBOwB0kPgR7Zq0svO9q3-23" value="virtual machine" style="text;whiteSpace=wrap;html=1;" vertex="1" parent="1">
          <mxGeometry x="240" y="117" width="110" height="30" as="geometry" />
        </mxCell>
      </root>
    </mxGraphModel>
  </diagram>
</mxfile>
